<?xml version="1.0" standalone="no"?>
<!DOCTYPE svg PUBLIC "-//W3C//DTD SVG 20010904//EN"
 "http://www.w3.org/TR/2001/REC-SVG-20010904/DTD/svg10.dtd">
<svg version="1.0" xmlns="http://www.w3.org/2000/svg"
 width="17.000000pt" height="20.000000pt" viewBox="0 0 17.000000 20.000000"
 preserveAspectRatio="xMidYMid meet">

<g transform="translate(0.000000,20.000000) scale(0.100000,-0.100000)"
fill="#000000" stroke="none">
<path d="M12 188 c-13 -13 -15 -56 -5 -136 l6 -53 75 3 c44 2 77 8 79 14 3 8
-17 10 -67 6 -58 -4 -70 -2 -70 10 0 16 46 28 108 28 17 0 32 5 32 11 0 7 -24
10 -72 8 -71 -4 -73 -3 -76 20 -4 23 -3 24 57 17 36 -4 61 -3 61 2 0 13 -35
22 -83 22 -31 0 -38 3 -35 18 3 14 16 18 71 20 37 2 67 7 67 12 0 15 -134 12
-148 -2z"/>
</g>
</svg>
